<svg width="64" height="64" viewBox="0 0 64 64" fill="none" xmlns="http://www.w3.org/2000/svg">
<g id="curved / dna">
<path id="shape" d="M55.1406 40.0557L40.0557 55.1406M55.1406 40.0557L47.598 32.513M55.1406 40.0557L57.0262 41.9413M40.0557 55.1406L32.513 47.598M40.0557 55.1406L41.9413 57.0262M32.513 47.598L47.598 32.513M32.513 47.598C28.3474 43.4324 28.3476 36.6788 32.5132 32.5132M47.598 32.513C43.4324 28.3474 36.6788 28.3476 32.5132 32.5132M32.513 17.4281L17.4281 32.513M32.513 17.4281C36.6786 21.5937 36.6788 28.3476 32.5132 32.5132M32.513 17.4281L24.9707 9.88574M17.4281 32.513C21.5937 36.6786 28.3476 36.6788 32.5132 32.5132M17.4281 32.513L9.88574 24.9707M24.9707 9.88574L9.88574 24.9707M24.9707 9.88574L23.0849 8M9.88574 24.9707L8 23.0849" stroke="#2AB8FA" stroke-width="3" stroke-linecap="round" stroke-linejoin="round"/>
</g>
</svg>
