<svg width="132" height="30" viewBox="0 0 132 30" fill="none" xmlns="http://www.w3.org/2000/svg">
<g id="Group 35789">
<path id="Vector" fill-rule="evenodd" clip-rule="evenodd" d="M105.925 13.7623C113.441 10.2343 118.453 7.90834 120.961 6.78456C128.121 3.57597 129.609 3.0186 130.578 3.0002C130.792 2.99615 131.269 3.0531 131.577 3.32315C131.838 3.55118 131.91 3.85921 131.944 4.07541C131.979 4.2916 132.022 4.7841 131.988 5.16893C131.6 9.56125 129.921 20.2203 129.066 25.1397C128.705 27.2214 127.993 27.9193 127.304 27.9876C125.807 28.136 124.67 26.9216 123.22 25.8974C120.951 24.2948 119.669 23.2972 117.466 21.7333C114.921 19.926 116.571 18.9327 118.022 17.3094C118.401 16.8845 124.998 10.4198 125.126 9.83335C125.142 9.76001 125.157 9.48661 125.006 9.34225C124.855 9.19788 124.633 9.24725 124.472 9.28651C124.245 9.34216 120.619 11.9236 113.597 17.0309C112.568 17.7921 111.636 18.163 110.801 18.1436C109.88 18.1222 108.109 17.5828 106.793 17.1218C105.178 16.5563 103.895 16.2574 104.007 15.297C104.065 14.7968 104.704 14.2852 105.925 13.7623Z" fill="#484848"/>
<path id="Vector_2" d="M10.0012 15C10.0012 12.2387 12.2392 9.9996 15.0006 9.9996C17.762 9.9996 20.0012 12.2387 20.0012 15C20.0012 17.7613 17.762 20.0004 15.0006 20.0004C12.2392 20.0004 10.0012 17.7613 10.0012 15ZM7.29797 15C7.29797 19.254 10.7464 22.7023 15.0006 22.7023C19.2548 22.7023 22.7032 19.254 22.7032 15C22.7032 10.746 19.2548 7.29768 15.0006 7.29768C10.7464 7.29768 7.29809 10.7458 7.29809 15M21.2082 6.99228C21.2081 7.34829 21.3135 7.69634 21.5112 7.99243C21.7089 8.28852 21.9899 8.51934 22.3188 8.65571C22.6476 8.79208 23.0095 8.82787 23.3588 8.75855C23.708 8.68924 24.0288 8.51793 24.2806 8.2663C24.5325 8.01467 24.704 7.69401 24.7736 7.34487C24.8432 6.99573 24.8077 6.6338 24.6716 6.30484C24.5355 5.97587 24.3049 5.69466 24.0089 5.49675C23.713 5.29885 23.365 5.19314 23.009 5.193H23.0083C22.5311 5.19322 22.0735 5.38284 21.7359 5.7202C21.3984 6.05756 21.2086 6.51508 21.2082 6.99228ZM8.94036 27.2098C7.47786 27.1432 6.68295 26.8996 6.15469 26.6938C5.45434 26.4211 4.95464 26.0964 4.42926 25.5718C3.90388 25.0471 3.57866 24.5479 3.30721 23.8476C3.10128 23.3196 2.85767 22.5245 2.79119 21.062C2.71847 19.4809 2.70395 19.006 2.70395 15.0002C2.70395 10.9945 2.71967 10.5209 2.79119 8.93844C2.85779 7.476 3.1032 6.68244 3.30721 6.15288C3.57986 5.45256 3.9046 4.95288 4.42926 4.42752C4.95392 3.90216 5.45314 3.57696 6.15469 3.30552C6.68271 3.0996 7.47786 2.856 8.94036 2.78952C10.5215 2.7168 10.9965 2.70228 15.0006 2.70228C19.0047 2.70228 19.4801 2.71776 21.0626 2.78976C22.5251 2.85636 23.3187 3.10176 23.8483 3.30576C24.5487 3.5772 25.0484 3.90312 25.5737 4.42776C26.0991 4.9524 26.4231 5.4528 26.6958 6.15312C26.9017 6.68112 27.1453 7.47624 27.2118 8.93868C27.2845 10.5211 27.2991 10.9948 27.2991 15.0005C27.2991 19.0062 27.2845 19.4798 27.2118 21.0623C27.1452 22.5247 26.9004 23.3196 26.6958 23.8478C26.4231 24.5482 26.0984 25.0478 25.5737 25.572C25.0491 26.0962 24.5487 26.4214 23.8483 26.694C23.3203 26.8999 22.5251 27.1435 21.0626 27.21C19.4815 27.2827 19.0065 27.2972 15.0006 27.2972C10.9947 27.2972 10.5211 27.2827 8.94036 27.21M8.81615 0.0908401C7.21925 0.16356 6.12805 0.41676 5.17509 0.78756C4.18877 1.17048 3.35269 1.6842 2.51782 2.51772C1.68295 3.35124 1.17053 4.1874 0.787592 5.17488C0.416777 6.1284 0.163567 7.21896 0.0908437 8.8158C0.0169208 10.4152 0 10.9265 0 15C0 19.0735 0.0169208 19.5848 0.0908437 21.1842C0.163567 22.7812 0.416777 23.8716 0.787592 24.8251C1.17053 25.8114 1.68307 26.6491 2.51782 27.4823C3.35257 28.3154 4.18757 28.8284 5.17509 29.2124C6.12985 29.5832 7.21925 29.8364 8.81615 29.9092C10.4164 29.9819 10.9269 30 15.0006 30C19.0743 30 19.5856 29.9831 21.185 29.9092C22.7821 29.8364 23.8726 29.5832 24.8261 29.2124C25.8124 28.8284 26.6485 28.3158 27.4834 27.4823C28.3183 26.6488 28.8296 25.8114 29.2136 24.8251C29.5844 23.8716 29.8388 22.781 29.9104 21.1842C29.9831 19.5836 30 19.0735 30 15C30 10.9265 29.9831 10.4152 29.9104 8.8158C29.8376 7.21884 29.5844 6.1278 29.2136 5.17488C28.8296 4.1886 28.3169 3.35256 27.4834 2.51772C26.6498 1.68288 25.8124 1.17048 24.8273 0.78756C23.8726 0.41676 22.782 0.16236 21.1862 0.0908401C19.5866 0.0177601 19.0755 0 15.0024 0C10.9293 0 10.417 0.0169201 8.81675 0.0908401" fill="#484848"/>
<path id="Vector_3" fill-rule="evenodd" clip-rule="evenodd" d="M83.2199 5.55734C83.4564 4.65974 83.2199 4 82.095 4H78.3754C77.4295 4 76.9938 4.56986 76.7573 5.19842C76.7573 5.19842 74.8656 10.45 72.1859 13.8612C71.319 14.8487 70.925 15.1626 70.4521 15.1626C70.2156 15.1626 69.8734 14.8487 69.8734 13.9511V5.55734C69.8734 4.47997 69.5989 4 68.8106 4H62.9655C62.3746 4 62.0191 4.49995 62.0191 4.97387C62.0191 5.99525 63.3587 6.2307 63.4969 9.10328V15.3426C63.4969 16.7105 63.2801 16.9587 62.8072 16.9587C61.5462 16.9587 58.4791 11.6832 56.6597 5.64722C56.3032 4.47392 55.9455 4 54.9949 4H51.2753C50.2125 4 50 4.56986 50 5.19842C50 6.32058 51.2612 11.8866 55.8717 19.2478C58.9457 24.2745 63.2759 27 67.2165 27C69.5811 27 69.8734 26.3947 69.8734 25.3522V21.5526C69.8734 20.3421 70.0974 20.1006 70.8458 20.1006C71.3979 20.1006 72.3435 20.4147 74.5505 22.8385C77.0724 25.7108 77.488 27 78.9067 27H82.6264C83.6891 27 84.2205 26.3947 83.9139 25.2002C83.5786 24.0097 82.3745 22.2829 80.7767 20.2353C79.9097 19.068 78.6092 17.8112 78.2154 17.1829C77.6636 16.3749 77.8211 16.016 78.2154 15.2981C78.2154 15.2981 82.747 8.02621 83.2199 5.55734Z" fill="#484848"/>
</g>
</svg>
